<?xml version="1.0" encoding="UTF-8"?>
<!DOCTYPE svg PUBLIC "-//W3C//DTD SVG 1.1//EN" "http://www.w3.org/Graphics/SVG/1.1/DTD/svg11.dtd">
<!-- Creator: CorelDRAW -->
<svg xmlns="http://www.w3.org/2000/svg" xml:space="preserve" width="2255px" height="1754px" shape-rendering="geometricPrecision" text-rendering="geometricPrecision" image-rendering="optimizeQuality" fill-rule="evenodd" clip-rule="evenodd"
viewBox="0 0 2248.93 1749.05"
 xmlns:xlink="http://www.w3.org/1999/xlink">
 <g id="Ebene_x0020_1">
  <metadata id="CorelCorpID_0Corel-Layer"/>
  <path fill="#006995" d="M2067.95 525.635c-119.557,-59.5099 -283.859,-103.139 -461.521,-130.303 -2.10689,-0.312088 -4.24322,-0.613577 -6.34775,-0.929198 0.228472,3.62729 0.370973,7.25811 0.425146,10.9184 0.350952,0.0541738 0.699548,0.105992 1.05168,0.156633 172.21,26.6382 326.794,68.849 432.571,125.199 137.776,73.4066 184.676,166.102 77.2353,259.012 -143.194,123.778 -508.126,211.377 -986.884,211.377 -478.763,0 -843.713,-87.6131 -986.926,-211.396 -107.416,-92.9233 -60.5262,-185.602 77.2577,-259.007 105.75,-56.3537 260.338,-98.5645 432.569,-125.204 0.35213,-0.0506407 0.683061,-0.101281 1.03401,-0.151922 0.0730168,-3.64613 0.21434,-7.29108 0.439279,-10.9184 -2.11867,0.329753 -4.25853,0.613577 -6.3772,0.94333 -177.65,27.1646 -341.945,70.8122 -461.486,130.303 -160.157,79.6555 -233.124,183.952 -139.814,292.84 130.633,152.397 531.522,265.576 1083.29,265.576 551.76,0 952.66,-113.18 1083.26,-265.576 93.3414,-108.888 20.3776,-213.184 -139.778,-292.84l0 0z"/>
  <path fill="#1F1A17" d="M1035.19 16.6266c-27.724,-10.7217 -57.827,-16.6266 -89.2831,-16.6266 -137.797,0 -249.507,112.743 -249.507,251.84 0,33.7656 6.60449,65.9731 18.5569,95.4118 -34.206,45.8028 -38.2538,115.86 -38.2538,214.218 0,80.428 31.946,153.007 83.218,204.525 -35.5192,12.5318 -56.9484,28.685 -56.9484,46.3492 0,39.7954 108.782,72.0747 242.953,72.0747 31.5068,0 61.6133,-1.7948 89.2277,-5.0311 -89.965,-10.5509 -153.605,-36.5885 -153.605,-67.0436 0,-17.6642 21.4116,-33.8174 56.9484,-46.3492 -51.2719,-51.5004 -83.218,-124.097 -83.218,-204.525 0,-98.3584 4.04772,-168.416 38.2538,-214.218 -11.9489,-29.4387 -18.5569,-61.6462 -18.5569,-95.4118 -0.01531,-107.329 66.5207,-198.954 160.214,-235.213zm453.855 749.354c51.279,-51.504 83.218,-124.098 83.218,-204.53 0,-98.3537 -4.0489,-168.412 -38.2726,-214.217 11.9559,-29.4352 18.5616,-61.6498 18.5616,-95.413 0,-139.078 -111.706,-251.821 -249.508,-251.821 -31.4773,0 -61.5591,5.90494 -89.2819,16.6266 93.7147,36.2587 160.211,127.884 160.211,235.194 0,33.7632 -6.58447,65.9778 -18.5545,95.413 34.2202,45.8051 38.2726,115.864 38.2726,214.217 0,80.4316 -31.9319,153.01 -83.218,204.53 35.5333,12.5247 56.9673,28.6838 56.9673,46.3457 0,30.4551 -63.6671,56.5103 -153.643,67.0436 27.6369,3.25396 57.7398,5.02756 89.2466,5.02756 134.167,0 242.932,-32.2758 242.932,-72.0711 0,-17.6618 -21.4045,-33.8209 -56.9308,-46.3457l0 0z"/>
  <polygon fill="#006995" points="458.525,1744.73 405.293,1744.73 405.293,1605.8 366.833,1695.95 329.908,1695.95 291.443,1605.8 291.443,1744.73 240.998,1744.73 240.998,1537.24 303.148,1537.24 349.832,1641.33 396.374,1537.24 458.525,1537.24 "/>
  <path fill="#006995" d="M703.077 1744.73l-55.3197 0 -14.3537 -41.9458 -76.9209 0 -14.349 41.9458 -53.9276 0 76.6382 -207.489 61.5909 0 76.6418 207.489zm-82.6339 -79.9817l-25.4994 -74.4183 -25.497 74.4183 50.9964 0z"/>
  <polygon fill="#006995" points="895.516,1577.37 830.722,1577.37 830.722,1744.73 777.211,1744.73 777.211,1577.37 712.413,1577.37 712.413,1537.24 895.516,1537.24 "/>
  <path fill="#006995" d="M1044.06 1600.78c0,-5.20539 -1.06934,-9.66295 -3.20214,-13.3774 -2.13633,-3.71797 -5.80719,-6.64571 -11.0091,-8.78204 -3.62375,-1.48389 -7.84931,-2.36834 -12.6814,-2.64745 -4.83089,-0.369795 -10.4497,-0.554692 -16.8634,-0.554692l-19.3659 0 0 55.8779 16.4429 0c8.54532,0 15.6951,-0.420436 21.4622,-1.25542 5.75655,-0.833805 10.5851,-2.74166 14.4915,-5.71298 3.71444,-2.87592 6.40546,-6.03567 8.07778,-9.47806 1.76654,-3.52483 2.64745,-8.2191 2.64745,-14.0699zm83.4653 143.946l-65.343 0 -56.5786 -76.0824 -24.6656 0 0 76.0824 -53.234 0 0 -207.489 89.7424 0c12.2609,0 22.8048,0.697193 31.6304,2.09276 8.82915,1.38968 17.0883,4.41163 24.8104,9.05409 7.79514,4.64363 13.9768,10.6828 18.5286,18.1152 4.64363,7.33819 6.96486,16.5842 6.96486,27.7299 0,15.33 -3.57311,27.8253 -10.7299,37.4847 -7.05555,9.65942 -17.1825,17.6983 -30.3785,24.1073l69.2529 88.9051z"/>
  <path fill="#006995" d="M1352.44 1641.05c0,33.0743 -9.47452,59.3615 -28.4236,78.8688 -18.9526,19.4166 -45.1527,29.1266 -78.5967,29.1266 -33.3498,0 -59.5017,-9.71006 -78.4507,-29.1266 -18.9538,-19.5073 -28.4236,-45.7945 -28.4236,-78.8688 0,-33.3487 9.46981,-59.6865 28.4236,-79.0101 18.949,-19.4131 45.1008,-29.1231 78.4507,-29.1231 33.2627,0 59.4074,9.71006 78.4554,29.1231 19.0433,19.3236 28.5649,45.6614 28.5649,79.0101zm-70.9288 52.538c5.20539,-6.31831 9.06115,-13.7507 11.5637,-22.3008 2.51084,-8.63954 3.76154,-18.7641 3.76154,-30.375 0,-12.4482 -1.43561,-23.0368 -4.31977,-31.7753 -2.87239,-8.72669 -6.63864,-15.7893 -11.2846,-21.1761 -4.72961,-5.57519 -10.2176,-9.61585 -16.4394,-12.1255 -6.13341,-2.5073 -12.5459,-3.76154 -19.2317,-3.76154 -6.77879,0 -13.196,1.20713 -19.2317,3.62375 -5.94145,2.41544 -11.426,6.40899 -16.4394,11.9806 -4.64952,5.20186 -8.45111,12.4058 -11.433,21.6 -2.87239,9.10473 -4.31624,19.6969 -4.31624,31.7717 0,12.3587 1.38968,22.8955 4.18198,31.6304 2.88063,8.64072 6.64571,15.6986 11.2917,21.1796 4.6401,5.48097 10.0728,9.52516 16.2981,12.1302 6.2241,2.59681 12.7673,3.89933 19.6486,3.89933 6.87065,0 13.4245,-1.30253 19.6415,-3.89933 6.23234,-2.69573 11.6662,-6.83061 16.3087,-12.4023z"/>
  <path fill="#006995" d="M1559.79 1679.51c0,20.4353 -8.68311,37.0666 -26.0576,49.8858 -17.2767,12.7285 -40.7858,19.0904 -70.5119,19.0904 -17.186,0 -32.1886,-1.48742 -45.0031,-4.45756 -12.7355,-3.06906 -24.6703,-6.92129 -35.8195,-11.5673l0 -49.7457 5.85077 0c11.0597,8.82208 23.4101,15.6056 37.0702,20.3458 13.7484,4.73785 26.9444,7.10265 39.5704,7.10265 3.25749,0 7.52662,-0.27558 12.8262,-0.834983 5.29608,-0.554692 9.61231,-1.48625 12.9605,-2.78524 4.0807,-1.67232 7.43241,-3.76508 10.0292,-6.2712 2.6922,-2.51084 4.04066,-6.22174 4.04066,-11.1468 0,-4.55295 -1.95497,-8.45582 -5.85077,-11.7098 -3.80865,-3.33993 -9.42742,-5.89788 -16.8598,-7.66088 -7.80573,-1.86075 -16.0755,-3.57547 -24.8033,-5.15358 -8.63954,-1.67232 -16.7691,-3.76508 -24.3864,-6.27591 -17.4687,-5.66587 -30.0523,-13.3303 -37.7638,-22.9932 -7.62437,-9.74657 -11.4224,-21.825 -11.4224,-36.2293 0,-19.3224 8.63718,-35.0646 25.9174,-47.2348 17.3674,-12.2633 39.6611,-18.3944 66.887,-18.3944 13.6506,0 27.1222,1.3461 40.4089,4.04066 13.3739,2.59799 24.9376,5.89905 34.6983,9.88907l0 47.7966 -5.71298 0c-8.36749,-6.68575 -18.6299,-12.2609 -30.799,-16.715 -12.0713,-4.55531 -24.4371,-6.82943 -37.0714,-6.82943 -4.45049,0 -8.91276,0.322687 -13.3703,0.975128 -4.37041,0.554692 -8.59243,1.66879 -12.6884,3.34111 -3.61669,1.39674 -6.72815,3.53307 -9.32967,6.41253 -2.60387,2.78642 -3.89933,5.99209 -3.89933,9.61585 0,5.48097 2.08569,9.70653 6.26885,12.6743 4.17491,2.8877 12.0784,5.53161 23.6893,7.94352 7.61024,1.58164 14.9084,3.1197 21.8768,4.60006 7.06261,1.48625 14.6363,3.53189 22.7106,6.13695 15.887,5.19833 27.5886,12.3033 35.1187,21.3174 7.61377,8.9163 11.426,20.5307 11.426,34.8373z"/>
  <polygon fill="#006995" points="1790.27,1744.73 1724.63,1744.73 1662.63,1661.68 1650.08,1676.86 1650.08,1744.73 1596.58,1744.73 1596.58,1537.24 1650.08,1537.24 1650.08,1631.16 1724.21,1537.24 1786.23,1537.24 1705.13,1633.25 "/>
  <path fill="#006995" d="M2007.93 1744.73l-55.3208 0 -14.3525 -41.9458 -76.9173 0 -14.3525 41.9458 -53.9312 0 76.6418 -207.489 61.5909 0 76.6418 207.489zm-82.6303 -79.9817l-25.5076 -74.4183 -25.4958 74.4183 51.0034 0z"/>
  <polygon fill="#696766" points="450.261,1419.54 395.815,1419.54 395.815,1311.42 356.26,1382.77 331.753,1382.77 292.202,1311.42 292.202,1419.54 239.304,1419.54 239.304,1245.34 299.957,1245.34 344.783,1324.44 389.613,1245.34 450.261,1245.34 "/>
  <path fill="#696766" d="M608.476 1374.08l0 -36.2941c-7.54782,0.619465 -15.7163,1.49802 -24.5054,2.63332 -8.78911,1.04108 -15.4595,2.27412 -20.009,3.7215 -5.58579,1.75947 -9.87729,4.34921 -12.8769,7.76216 -2.8983,3.3046 -4.34097,7.70092 -4.34097,13.1819 0,3.61669 0.307377,6.56563 0.92802,8.84328 0.620643,2.27412 2.17284,4.44343 4.65423,6.51145 2.3754,2.06685 5.22306,3.61904 8.53119,4.65659 3.30813,0.929198 8.48055,1.39321 15.5102,1.39321 5.58225,0 11.2234,-1.13529 16.9105,-3.40941 5.78953,-2.27765 10.856,-5.2737 15.1981,-8.99991zm0 26.9915c-2.99958,2.27765 -6.72108,5.01225 -11.168,8.22264 -4.44696,3.20332 -8.63365,5.73889 -12.5613,7.59611 -5.48451,2.48375 -11.1692,4.29386 -17.0636,5.42915 -5.89434,1.24482 -12.3575,1.86075 -19.3907,1.86075 -16.5442,0 -30.4009,-5.11353 -41.569,-15.35 -11.1692,-10.24 -16.7515,-23.3242 -16.7515,-39.2477 0,-12.7167 2.84059,-23.1098 8.52766,-31.177 5.68825,-8.06247 13.7554,-14.4255 24.198,-19.0786 10.3413,-4.65423 23.1675,-7.96237 38.4716,-9.92793 15.2994,-1.96674 31.1758,-3.41413 47.6188,-4.34215l0 -0.932731c0,-9.61585 -3.92878,-16.2356 -11.7887,-19.8523 -7.85991,-3.72504 -19.4425,-5.58579 -34.7454,-5.58579 -9.20248,0 -19.0256,1.65466 -29.4717,4.96632 -10.4473,3.20214 -17.9409,5.68354 -22.4892,7.44301l-5.12178 0 0 -42.0365c5.89434,-1.54984 15.4595,-3.35877 28.6991,-5.4268 13.3373,-2.16931 26.6747,-3.25749 40.0156,-3.25749 31.747,0 54.6531,4.91097 68.7159,14.7306 14.1688,9.72419 21.2526,25.0318 21.2526,45.9217l0 118.507 -55.3786 0 0 -18.4627z"/>
  <polygon fill="#696766" points="856.661,1283.19 801.13,1283.19 801.13,1419.54 745.288,1419.54 745.288,1283.19 689.757,1283.19 689.757,1245.34 856.661,1245.34 "/>
  <path fill="#696766" d="M1066.38 1330.03c0,14.3678 -2.22701,27.4543 -6.67044,39.243 -4.34568,11.7887 -10.0846,21.5105 -17.2155,29.1608 -7.45125,8.06718 -15.88,14.1676 -25.2827,18.3025 -9.41682,4.13958 -19.4967,6.20643 -30.2513,6.20643 -9.92793,0 -18.3543,-1.08465 -25.2827,-3.26103 -6.92836,-2.06685 -14.0122,-5.01225 -21.2526,-8.83975l0 72.594 -55.8414 0 0 -238.1 55.8414 0 0 18.1506c8.58301,-6.82707 17.3203,-12.3622 26.2154,-16.5984 8.9952,-4.24086 19.3365,-6.36306 31.0204,-6.36306 21.7166,0 38.5764,7.9659 50.5677,23.8895 12.1008,15.9247 18.1517,37.7933 18.1517,65.615zm-57.5479 1.08465c-0.00353307,-16.9576 -2.8983,-29.2656 -8.68665,-36.9159 -5.79306,-7.65263 -14.9449,-11.4801 -27.4555,-11.4837 -5.2737,0.00353307 -10.7005,0.830272 -16.2863,2.48493 -5.58579,1.5522 -10.9113,3.82632 -15.9789,6.8259l0 87.6402c3.7215,1.44738 7.70445,2.37894 11.9453,2.78877 4.23969,0.416903 8.42638,0.624176 12.5648,0.624176 14.7847,0 25.8009,-4.29504 33.0413,-12.8769 7.23573,-8.68429 10.8524,-21.7131 10.856,-39.0876z"/>
  <path fill="#696766" d="M1278.26 1342.75l-127.811 0c0.823206,13.6494 5.99916,24.0932 15.5067,31.3289 9.61938,7.24044 23.7375,10.8607 42.3486,10.8607 11.7852,0 23.2111,-2.1222 34.2779,-6.36189 11.0715,-4.24086 19.8088,-8.78911 26.2225,-13.6459l6.19936 0 0 44.8217c-12.6131,5.0676 -24.5066,8.73847 -35.6711,11.0161 -11.1763,2.27883 -23.5303,3.40941 -37.0784,3.40941 -34.9492,0 -61.7334,-7.85638 -80.348,-23.5774 -18.6158,-15.7163 -27.916,-38.1042 -27.916,-67.1625 0,-28.7427 8.78557,-51.4969 26.3661,-68.2519 17.6877,-16.8516 41.8775,-25.2815 72.594,-25.2815 28.3364,0 49.6314,7.18862 63.9015,21.5635 14.2736,14.2701 21.4081,34.8479 21.4081,61.7369l0 19.5438zm-55.5258 -32.7292c-0.312088,-11.6862 -3.21039,-20.4789 -8.68783,-26.3697 -5.48451,-5.89434 -14.0122,-8.84328 -25.5948,-8.84328 -10.7511,0 -19.598,2.7923 -26.5263,8.37809 -6.92836,5.58343 -10.8088,14.528 -11.6321,26.8349l72.4409 0zm31.9519 -89.5033l-46.0701 0 0 -42.3451 46.0701 0 0 42.3451zm-83.2969 0l-46.0736 0 0 -42.3451 46.0736 0 0 42.3451z"/>
  <polygon fill="#696766" points="1583.37,1419.54 1317.66,1419.54 1317.66,1245.34 1373.34,1245.34 1373.34,1381.22 1422.67,1381.22 1422.67,1245.34 1478.35,1245.34 1478.35,1381.22 1527.69,1381.22 1527.69,1245.34 1583.37,1245.34 "/>
  <path fill="#696766" d="M1820.85 1419.54l-64.5292 0 -46.6872 -69.0315 -17.8432 0 0 69.0315 -55.8379 0 0 -174.197 55.8379 0 0 69.956c10.3413,-0.105992 17.4805,-1.19065 21.4092,-3.25749 3.9276,-2.17284 8.47584,-7.80573 13.6494,-16.9105 1.54866,-2.68396 3.41295,-6.14872 5.58225,-10.3849 2.17284,-4.2444 3.87343,-7.50542 5.12178,-9.77954 5.68354,-10.1317 12.3033,-17.6253 19.8523,-22.4892 7.6491,-4.96279 18.2519,-7.44654 31.8,-7.44654 3.92878,0 8.06365,0.0541738 12.4058,0.158988 4.45403,0.101281 7.44301,0.1531 8.99874,0.1531l0 46.5306 -15.2016 0c-6.2029,0.00353307 -11.1645,1.5522 -14.886,4.65777 -3.61669,3.10086 -6.7729,7.70445 -9.46392,13.8049 -2.28236,5.0676 -4.34568,9.10119 -6.20643,12.0972 -1.86075,2.89476 -4.23733,5.37969 -7.13916,7.44654l63.1372 89.66z"/>
  <path fill="#696766" d="M1954.25 1374.08l0 -36.2941c-7.549,0.619465 -15.7175,1.49802 -24.503,2.63332 -8.79617,1.04108 -15.4666,2.27412 -20.0113,3.7215 -5.57872,1.75947 -9.87729,4.34921 -12.8733,7.76216 -2.8983,3.3046 -4.34921,7.70092 -4.34921,13.1819 0,3.61669 0.319154,6.56563 0.93862,8.84328 0.61711,2.27412 2.16577,4.44343 4.64717,6.51145 2.38365,2.06685 5.21953,3.61904 8.53119,4.65659 3.31167,0.929198 8.48055,1.39321 15.5173,1.39321 5.57872,0 11.2163,-1.13529 16.9034,-3.40941 5.79306,-2.27765 10.8571,-5.2737 15.1993,-8.99991zm0 26.9915c-2.99251,2.27765 -6.71519,5.01225 -11.1692,8.22264 -4.44343,3.20332 -8.63247,5.73889 -12.5577,7.59611 -5.48804,2.48375 -11.168,4.29386 -17.0659,5.42915 -5.89434,1.24482 -12.3552,1.86075 -19.3883,1.86075 -16.5513,0 -30.408,-5.11353 -41.576,-15.35 -11.1645,-10.24 -16.7468,-23.3242 -16.7468,-39.2477 0,-12.7167 2.84295,-23.1098 8.53119,-31.177 5.68707,-8.06247 13.7543,-14.4255 24.1968,-19.0786 10.346,-4.65423 23.1605,-7.96237 38.4681,-9.92793 15.3076,-1.96674 31.177,-3.41413 47.6223,-4.34215l0 -0.932731c0,-9.61585 -3.93467,-16.2356 -11.7922,-19.8523 -7.85638,-3.72504 -19.4378,-5.58579 -34.7419,-5.58579 -9.20601,0 -19.0327,1.65466 -29.4717,4.96632 -10.4426,3.20214 -17.9409,5.68354 -22.4963,7.44301l-5.11471 0 0 -42.0365c5.89434,-1.54984 15.456,-3.35877 28.6956,-5.4268 13.3409,-2.16931 26.6782,-3.25749 40.0203,-3.25749 31.7494,0 54.6519,4.91097 68.7147,14.7306 14.1688,9.72419 21.2526,25.0318 21.2526,45.9217l0 118.507 -55.3809 0 0 -18.4627z"/>
 </g>
</svg>
