<?xml version="1.0" encoding="UTF-8" standalone="no"?>
<!-- Creator: CorelDRAW -->

<svg
   xmlns:dc="http://purl.org/dc/elements/1.1/"
   xmlns:cc="http://creativecommons.org/ns#"
   xmlns:rdf="http://www.w3.org/1999/02/22-rdf-syntax-ns#"
   xmlns:svg="http://www.w3.org/2000/svg"
   xmlns="http://www.w3.org/2000/svg"
   xmlns:sodipodi="http://sodipodi.sourceforge.net/DTD/sodipodi-0.dtd"
   xmlns:inkscape="http://www.inkscape.org/namespaces/inkscape"
   xml:space="preserve"
   width="128"
   height="99.544846"
   shape-rendering="geometricPrecision"
   text-rendering="geometricPrecision"
   image-rendering="optimizeQuality"
   clip-rule="evenodd"
   viewBox="0 0 127.65545 99.263919"
   id="svg3082"
   version="1.1"
   inkscape:version="0.47 r22583"
   sodipodi:docname="Matroska.svg"
   style="fill-rule:evenodd"><metadata
   id="metadata3126"><rdf:RDF><cc:Work
       rdf:about=""><dc:format>image/svg+xml</dc:format><dc:type
         rdf:resource="http://purl.org/dc/dcmitype/StillImage" /><dc:title></dc:title></cc:Work></rdf:RDF></metadata><defs
   id="defs3124"><inkscape:perspective
     sodipodi:type="inkscape:persp3d"
     inkscape:vp_x="0 : 877 : 1"
     inkscape:vp_y="0 : 1000 : 0"
     inkscape:vp_z="2255 : 877 : 1"
     inkscape:persp3d-origin="1127.5 : 584.66667 : 1"
     id="perspective3128" /></defs><sodipodi:namedview
   pagecolor="#ffffff"
   bordercolor="#666666"
   borderopacity="1"
   objecttolerance="10"
   gridtolerance="10"
   guidetolerance="10"
   inkscape:pageopacity="0"
   inkscape:pageshadow="2"
   inkscape:window-width="1280"
   inkscape:window-height="725"
   id="namedview3122"
   showgrid="false"
   inkscape:zoom="5.0730905"
   inkscape:cx="64.000002"
   inkscape:cy="49.880523"
   inkscape:window-x="0"
   inkscape:window-y="24"
   inkscape:window-maximized="1"
   inkscape:current-layer="svg3082" />
 <g
   id="Ebene_x0020_1"
   transform="matrix(0.0567606,0,0,0.0567606,0.0025371,-0.1142719)">
  <metadata
   id="CorelCorpID_0Corel-Layer" />
  <path
   d="m 2067.95,525.635 c -119.557,-59.5099 -283.859,-103.139 -461.521,-130.303 -2.1069,-0.31209 -4.2432,-0.61358 -6.3477,-0.9292 0.2284,3.62729 0.3709,7.25811 0.4251,10.9184 0.3509,0.0542 0.6995,0.10599 1.0517,0.15664 172.21,26.63819 326.794,68.849 432.571,125.19899 137.776,73.4066 184.676,166.102 77.2353,259.012 -143.194,123.778 -508.126,211.37697 -986.884,211.37697 -478.76302,0 -843.71302,-87.61307 -986.92602,-211.39597 -107.416004,-92.9233 -60.526204,-185.602 77.2577,-259.007 105.75,-56.3537 260.338,-98.5645 432.569,-125.204 0.35213,-0.0506 0.68306,-0.10128 1.03401,-0.15192 0.073,-3.64613 0.21434,-7.29108 0.43927,-10.9184 -2.11867,0.32976 -4.25853,0.61358 -6.3772,0.94333 -177.65,27.1646 -341.945,70.8122 -461.486,130.303 -160.156995,79.6555 -233.123995,183.952 -139.813995,292.84 130.632995,152.397 531.521995,265.57596 1083.290035,265.57596 551.76,0 952.66,-113.17996 1083.26,-265.57596 93.3414,-108.888 20.3776,-213.184 -139.778,-292.84 l 0,0 z"
   id="path3086"
   style="fill:#006995" />
  <path
   d="M 1035.19,16.6266 C 1007.466,5.9049 977.363,0 945.9069,0 c -137.797,0 -249.507,112.743 -249.507,251.84 0,33.7656 6.60449,65.9731 18.5569,95.4118 -34.206,45.8028 -38.2538,115.86 -38.2538,214.218 0,80.428 31.946,153.007 83.218,204.525 -35.5192,12.5318 -56.9484,28.685 -56.9484,46.3492 0,39.7954 108.782,72.0747 242.953,72.0747 31.5068,0 61.6133,-1.7948 89.2277,-5.0311 -89.965,-10.5509 -153.605,-36.5885 -153.605,-67.0436 0,-17.6642 21.4116,-33.8174 56.9484,-46.3492 -51.2719,-51.5004 -83.218,-124.097 -83.218,-204.525 0,-98.3584 4.04772,-168.416 38.2538,-214.218 C 881.5836,317.8131 874.9756,285.6056 874.9756,251.84 874.9603,144.511 941.4963,52.886 1035.1896,16.627 z m 453.855,749.354 c 51.279,-51.504 83.218,-124.098 83.218,-204.53 0,-98.3537 -4.0489,-168.412 -38.2726,-214.217 11.9559,-29.4352 18.5616,-61.6498 18.5616,-95.413 0,-139.078 -111.706,-251.821 -249.508,-251.821 -31.4773,0 -61.5591,5.90494 -89.2819,16.6266 93.7147,36.2587 160.211,127.884 160.211,235.194 0,33.7632 -6.5845,65.9778 -18.5545,95.413 34.2202,45.8051 38.2726,115.864 38.2726,214.217 0,80.4316 -31.9319,153.01 -83.218,204.53 35.5333,12.5247 56.9673,28.6838 56.9673,46.3457 0,30.4551 -63.6671,56.5103 -153.643,67.0436 27.6369,3.25396 57.7398,5.02756 89.2466,5.02756 134.167,0 242.932,-32.2758 242.932,-72.0711 0,-17.6618 -21.4045,-33.8209 -56.9308,-46.3457 l 0,0 z"
   id="path3088"
   style="fill:#1f1a17" />
  <polygon
   points="291.443,1744.73 240.998,1744.73 240.998,1537.24 303.148,1537.24 349.832,1641.33 396.374,1537.24 458.525,1537.24 458.525,1744.73 405.293,1744.73 405.293,1605.8 366.833,1695.95 329.908,1695.95 291.443,1605.8 "
   id="polygon3090"
   style="fill:#006995" />
  <path
   d="m 703.077,1744.73 -55.3197,0 -14.3537,-41.9458 -76.9209,0 -14.349,41.9458 -53.9276,0 76.6382,-207.489 61.5909,0 76.6418,207.489 z m -82.6339,-79.9817 -25.4994,-74.4183 -25.497,74.4183 50.9964,0 z"
   id="path3092"
   style="fill:#006995" />
  <polygon
   points="777.211,1744.73 777.211,1577.37 712.413,1577.37 712.413,1537.24 895.516,1537.24 895.516,1577.37 830.722,1577.37 830.722,1744.73 "
   id="polygon3094"
   style="fill:#006995" />
  <path
   d="m 1044.06,1600.78 c 0,-5.2054 -1.0693,-9.6629 -3.2021,-13.3774 -2.1364,-3.718 -5.8072,-6.6457 -11.0091,-8.782 -3.6238,-1.4839 -7.8494,-2.3684 -12.6814,-2.6475 -4.8309,-0.3698 -10.4497,-0.5547 -16.8634,-0.5547 l -19.36594,0 0,55.8779 16.4429,0 c 8.54534,0 15.69514,-0.4204 21.46224,-1.2554 5.7565,-0.8338 10.5851,-2.7417 14.4915,-5.713 3.7144,-2.8759 6.4054,-6.0357 8.0777,-9.478 1.7666,-3.5249 2.6475,-8.2191 2.6475,-14.0699 z m 83.4653,143.946 -65.343,0 -56.5786,-76.0824 -24.6656,0 0,76.0824 -53.234,0 0,-207.489 89.7424,0 c 12.2609,0 22.8048,0.6972 31.6304,2.0928 8.8291,1.3896 17.0883,4.4116 24.8104,9.0541 7.7951,4.6436 13.9768,10.6828 18.5286,18.1151 4.6436,7.3382 6.9649,16.5843 6.9649,27.73 0,15.3299 -3.5731,27.8253 -10.7299,37.4847 -7.0556,9.6594 -17.1825,17.6983 -30.3785,24.1072 l 69.2529,88.9051 z"
   id="path3096"
   style="fill:#006995" />
  <path
   d="m 1352.44,1641.05 c 0,33.0743 -9.4745,59.3615 -28.4236,78.8688 -18.9526,19.4166 -45.1527,29.1266 -78.5967,29.1266 -33.3498,0 -59.5017,-9.7101 -78.4507,-29.1266 -18.9538,-19.5073 -28.4236,-45.7945 -28.4236,-78.8688 0,-33.3487 9.4698,-59.6865 28.4236,-79.0101 18.949,-19.4131 45.1008,-29.1231 78.4507,-29.1231 33.2627,0 59.4074,9.7101 78.4554,29.1231 19.0433,19.3236 28.5649,45.6614 28.5649,79.0101 z m -70.9288,52.538 c 5.2054,-6.3183 9.0612,-13.7507 11.5637,-22.3008 2.5108,-8.6395 3.7615,-18.7641 3.7615,-30.375 0,-12.4482 -1.4356,-23.0368 -4.3197,-31.7753 -2.8724,-8.7267 -6.6387,-15.7893 -11.2846,-21.1761 -4.7296,-5.5752 -10.2176,-9.6158 -16.4394,-12.1255 -6.1334,-2.5073 -12.5459,-3.7615 -19.2317,-3.7615 -6.7788,0 -13.196,1.2071 -19.2317,3.6237 -5.9415,2.4155 -11.426,6.409 -16.4394,11.9806 -4.6495,5.2019 -8.4511,12.4058 -11.433,21.6 -2.8724,9.1047 -4.3163,19.6969 -4.3163,31.7717 0,12.3587 1.3897,22.8955 4.182,31.6304 2.8806,8.6407 6.6457,15.6986 11.2917,21.1796 4.6401,5.481 10.0728,9.5252 16.2981,12.1302 6.2241,2.5968 12.7673,3.8993 19.6486,3.8993 6.8707,0 13.4245,-1.3025 19.6415,-3.8993 6.2323,-2.6957 11.6662,-6.8306 16.3087,-12.4023 z"
   id="path3098"
   style="fill:#006995" />
  <path
   d="m 1559.79,1679.51 c 0,20.4353 -8.6831,37.0666 -26.0576,49.8858 -17.2767,12.7285 -40.7858,19.0904 -70.5119,19.0904 -17.186,0 -32.1886,-1.4874 -45.0031,-4.4576 -12.7355,-3.069 -24.6703,-6.9212 -35.8195,-11.5673 l 0,-49.7457 5.8508,0 c 11.0597,8.8221 23.4101,15.6056 37.0702,20.3458 13.7484,4.7379 26.9444,7.1027 39.5704,7.1027 3.2575,0 7.5266,-0.2756 12.8262,-0.835 5.2961,-0.5547 9.6123,-1.4862 12.9605,-2.7852 4.0807,-1.6724 7.4324,-3.7651 10.0292,-6.2712 2.6922,-2.5109 4.0406,-6.2218 4.0406,-11.1468 0,-4.553 -1.9549,-8.4559 -5.8507,-11.7098 -3.8087,-3.34 -9.4275,-5.8979 -16.8598,-7.6609 -7.8058,-1.8608 -16.0755,-3.5755 -24.8033,-5.1536 -8.6396,-1.6723 -16.7691,-3.7651 -24.3864,-6.2759 -17.4687,-5.6659 -30.0523,-13.3303 -37.7638,-22.9932 -7.6244,-9.7466 -11.4224,-21.825 -11.4224,-36.2293 0,-19.3224 8.6371,-35.0646 25.9174,-47.2348 17.3674,-12.2633 39.6611,-18.3944 66.887,-18.3944 13.6506,0 27.1222,1.3461 40.4089,4.0407 13.3739,2.5979 24.9376,5.899 34.6983,9.889 l 0,47.7966 -5.713,0 c -8.3675,-6.6857 -18.6299,-12.2609 -30.799,-16.715 -12.0713,-4.5553 -24.4371,-6.8294 -37.0714,-6.8294 -4.4505,0 -8.9128,0.3227 -13.3703,0.9751 -4.3704,0.5547 -8.5925,1.6688 -12.6884,3.3411 -3.6167,1.3968 -6.7282,3.5331 -9.3297,6.4126 -2.6039,2.7864 -3.8993,5.9921 -3.8993,9.6158 0,5.481 2.0857,9.7065 6.2688,12.6743 4.1749,2.8877 12.0784,5.5316 23.6893,7.9435 7.6103,1.5817 14.9084,3.1197 21.8768,4.6001 7.0626,1.4862 14.6363,3.5319 22.7106,6.1369 15.887,5.1984 27.5886,12.3033 35.1187,21.3174 7.6138,8.9163 11.426,20.5307 11.426,34.8373 z"
   id="path3100"
   style="fill:#006995" />
  <polygon
   points="1650.08,1537.24 1650.08,1631.16 1724.21,1537.24 1786.23,1537.24 1705.13,1633.25 1790.27,1744.73 1724.63,1744.73 1662.63,1661.68 1650.08,1676.86 1650.08,1744.73 1596.58,1744.73 1596.58,1537.24 "
   id="polygon3102"
   style="fill:#006995" />
  <path
   d="m 2007.93,1744.73 -55.3208,0 -14.3525,-41.9458 -76.9173,0 -14.3525,41.9458 -53.9312,0 76.6418,-207.489 61.5909,0 76.6418,207.489 z m -82.6303,-79.9817 -25.5076,-74.4183 -25.4958,74.4183 51.0034,0 z"
   id="path3104"
   style="fill:#006995" />
  <polygon
   points="292.202,1419.54 239.304,1419.54 239.304,1245.34 299.957,1245.34 344.783,1324.44 389.613,1245.34 450.261,1245.34 450.261,1419.54 395.815,1419.54 395.815,1311.42 356.26,1382.77 331.753,1382.77 292.202,1311.42 "
   id="polygon3106"
   style="fill:#696766" />
  <path
   d="m 608.476,1374.08 0,-36.2941 c -7.54782,0.6195 -15.7163,1.498 -24.5054,2.6333 -8.78911,1.0411 -15.4595,2.2741 -20.009,3.7215 -5.58579,1.7595 -9.87729,4.3492 -12.8769,7.7622 -2.8983,3.3046 -4.34097,7.7009 -4.34097,13.1819 0,3.6167 0.30738,6.5656 0.92802,8.8433 0.62064,2.2741 2.17284,4.4434 4.65423,6.5114 2.3754,2.0669 5.22306,3.6191 8.53119,4.6566 3.30813,0.9292 8.48055,1.3932 15.5102,1.3932 5.58225,0 11.2234,-1.1353 16.9105,-3.4094 5.78953,-2.2776 10.856,-5.2737 15.1981,-8.9999 z m 0,26.9915 c -2.99958,2.2777 -6.72108,5.0123 -11.168,8.2226 -4.44696,3.2034 -8.63365,5.7389 -12.5613,7.5962 -5.48451,2.4837 -11.1692,4.2938 -17.0636,5.4291 -5.89434,1.2448 -12.3575,1.8608 -19.3907,1.8608 -16.5442,0 -30.4009,-5.1136 -41.569,-15.35 -11.1692,-10.24 -16.7515,-23.3242 -16.7515,-39.2477 0,-12.7167 2.84059,-23.1098 8.52766,-31.177 5.68825,-8.0625 13.7554,-14.4255 24.198,-19.0786 10.3413,-4.6543 23.1675,-7.9624 38.4716,-9.928 15.2994,-1.9667 31.1758,-3.4141 47.6188,-4.3421 l 0,-0.9328 c 0,-9.6158 -3.92878,-16.2356 -11.7887,-19.8523 -7.85991,-3.725 -19.4425,-5.5858 -34.7454,-5.5858 -9.20248,0 -19.0256,1.6547 -29.4717,4.9664 -10.4473,3.2021 -17.9409,5.6835 -22.4892,7.443 l -5.12178,0 0,-42.0365 c 5.89434,-1.5499 15.4595,-3.3588 28.6991,-5.4268 13.3373,-2.1693 26.6747,-3.2575 40.0156,-3.2575 31.747,0 54.6531,4.911 68.7159,14.7306 14.1688,9.7242 21.2526,25.0318 21.2526,45.9217 l 0,118.507 -55.3786,0 0,-18.4627 z"
   id="path3108"
   style="fill:#696766" />
  <polygon
   points="745.288,1419.54 745.288,1283.19 689.757,1283.19 689.757,1245.34 856.661,1245.34 856.661,1283.19 801.13,1283.19 801.13,1419.54 "
   id="polygon3110"
   style="fill:#696766" />
  <path
   d="m 1066.38,1330.03 c 0,14.3678 -2.227,27.4543 -6.6704,39.243 -4.3457,11.7887 -10.0846,21.5105 -17.2155,29.1608 -7.4513,8.0672 -15.88,14.1676 -25.2827,18.3025 -9.4169,4.1396 -19.49674,6.2064 -30.25134,6.2064 -9.92793,0 -18.3543,-1.0846 -25.2827,-3.261 -6.92836,-2.0668 -14.0122,-5.0122 -21.2526,-8.8397 l 0,72.594 -55.8414,0 0,-238.1 55.8414,0 0,18.1506 c 8.58301,-6.8271 17.3203,-12.3622 26.2154,-16.5984 8.9952,-4.2409 19.3365,-6.3631 31.0204,-6.3631 21.71664,0 38.57644,7.9659 50.56774,23.8895 12.1008,15.9247 18.1517,37.7933 18.1517,65.615 z m -57.5479,1.0847 c 0,-16.9576 -2.8983,-29.2656 -8.6866,-36.9159 -5.79311,-7.6527 -14.94495,-11.4801 -27.45555,-11.4837 -5.2737,0 -10.7005,0.8302 -16.2863,2.4849 -5.58579,1.5522 -10.9113,3.8263 -15.9789,6.8259 l 0,87.6402 c 3.7215,1.4474 7.70445,2.3789 11.9453,2.7888 4.23969,0.4169 8.42638,0.6241 12.5648,0.6241 14.7847,0 25.8009,-4.295 33.0413,-12.8769 7.23575,-8.6843 10.85245,-21.7131 10.85605,-39.0876 z"
   id="path3112"
   style="fill:#696766" />
  <path
   d="m 1278.26,1342.75 -127.811,0 c 0.8232,13.6494 5.9992,24.0932 15.5067,31.3289 9.6194,7.2404 23.7375,10.8607 42.3486,10.8607 11.7852,0 23.2111,-2.1222 34.2779,-6.3619 11.0715,-4.2408 19.8088,-8.7891 26.2225,-13.6459 l 6.1994,0 0,44.8217 c -12.6131,5.0676 -24.5066,8.7385 -35.6711,11.0161 -11.1763,2.2788 -23.5303,3.4094 -37.0784,3.4094 -34.9492,0 -61.7334,-7.8564 -80.348,-23.5774 -18.6158,-15.7163 -27.916,-38.1042 -27.916,-67.1625 0,-28.7427 8.7855,-51.4969 26.3661,-68.2519 17.6877,-16.8516 41.8775,-25.2815 72.594,-25.2815 28.3364,0 49.6314,7.1886 63.9015,21.5635 14.2736,14.2701 21.4081,34.8479 21.4081,61.7369 l 0,19.5438 z m -55.5258,-32.7292 c -0.3121,-11.6862 -3.2104,-20.4789 -8.6878,-26.3697 -5.4845,-5.8943 -14.0122,-8.8433 -25.5948,-8.8433 -10.7511,0 -19.598,2.7923 -26.5263,8.3781 -6.9284,5.5834 -10.8088,14.528 -11.6321,26.8349 l 72.4409,0 z m 31.9519,-89.5033 -46.0701,0 0,-42.3451 46.0701,0 0,42.3451 z m -83.2969,0 -46.0736,0 0,-42.3451 46.0736,0 0,42.3451 z"
   id="path3114"
   style="fill:#696766" />
  <polygon
   points="1478.35,1245.34 1478.35,1381.22 1527.69,1381.22 1527.69,1245.34 1583.37,1245.34 1583.37,1419.54 1317.66,1419.54 1317.66,1245.34 1373.34,1245.34 1373.34,1381.22 1422.67,1381.22 1422.67,1245.34 "
   id="polygon3116"
   style="fill:#696766" />
  <path
   d="m 1820.85,1419.54 -64.5292,0 -46.6872,-69.0315 -17.8432,0 0,69.0315 -55.8379,0 0,-174.197 55.8379,0 0,69.956 c 10.3413,-0.106 17.4805,-1.1907 21.4092,-3.2575 3.9276,-2.1728 8.4758,-7.8057 13.6494,-16.9105 1.5487,-2.684 3.4129,-6.1487 5.5822,-10.3849 2.1729,-4.2444 3.8735,-7.5054 5.1218,-9.7795 5.6836,-10.1317 12.3033,-17.6253 19.8523,-22.4892 7.6491,-4.9628 18.2519,-7.4466 31.8,-7.4466 3.9288,0 8.0637,0.054 12.4058,0.159 4.4541,0.1013 7.443,0.1531 8.9988,0.1531 l 0,46.5306 -15.2016,0 c -6.2029,0 -11.1645,1.5522 -14.886,4.6578 -3.6167,3.1008 -6.7729,7.7044 -9.464,13.8049 -2.2823,5.0676 -4.3456,9.1012 -6.2064,12.0972 -1.8607,2.8947 -4.2373,5.3797 -7.1391,7.4465 l 63.1372,89.66 z"
   id="path3118"
   style="fill:#696766" />
  <path
   d="m 1954.25,1374.08 0,-36.2941 c -7.549,0.6195 -15.7175,1.498 -24.503,2.6333 -8.7962,1.0411 -15.4666,2.2741 -20.0113,3.7215 -5.5787,1.7595 -9.8773,4.3492 -12.8733,7.7622 -2.8983,3.3046 -4.3492,7.7009 -4.3492,13.1819 0,3.6167 0.3191,6.5656 0.9386,8.8433 0.6171,2.2741 2.1658,4.4434 4.6472,6.5114 2.3836,2.0669 5.2195,3.6191 8.5312,4.6566 3.3116,0.9292 8.4805,1.3932 15.5173,1.3932 5.5787,0 11.2163,-1.1353 16.9034,-3.4094 5.793,-2.2776 10.8571,-5.2737 15.1993,-8.9999 z m 0,26.9915 c -2.9925,2.2777 -6.7152,5.0123 -11.1692,8.2226 -4.4434,3.2034 -8.6325,5.7389 -12.5577,7.5962 -5.488,2.4837 -11.168,4.2938 -17.0659,5.4291 -5.8943,1.2448 -12.3552,1.8608 -19.3883,1.8608 -16.5513,0 -30.408,-5.1136 -41.576,-15.35 -11.1645,-10.24 -16.7468,-23.3242 -16.7468,-39.2477 0,-12.7167 2.8429,-23.1098 8.5312,-31.177 5.6871,-8.0625 13.7543,-14.4255 24.1968,-19.0786 10.346,-4.6543 23.1605,-7.9624 38.4681,-9.928 15.3076,-1.9667 31.177,-3.4141 47.6223,-4.3421 l 0,-0.9328 c 0,-9.6158 -3.9347,-16.2356 -11.7922,-19.8523 -7.8564,-3.725 -19.4378,-5.5858 -34.7419,-5.5858 -9.206,0 -19.0327,1.6547 -29.4717,4.9664 -10.4426,3.2021 -17.9409,5.6835 -22.4963,7.443 l -5.1147,0 0,-42.0365 c 5.8943,-1.5499 15.456,-3.3588 28.6956,-5.4268 13.3409,-2.1693 26.6782,-3.2575 40.0203,-3.2575 31.7494,0 54.6519,4.911 68.7147,14.7306 14.1688,9.7242 21.2526,25.0318 21.2526,45.9217 l 0,118.507 -55.3809,0 0,-18.4627 z"
   id="path3120"
   style="fill:#696766" />
 </g>
</svg>